<?xml version="1.0" standalone="no"?>
<svg version="1.0" xmlns="http://www.w3.org/2000/svg"
    viewBox="0 0 300.000000 300.000000" preserveAspectRatio="xMidYMid meet">
    <g transform="translate(0.000000,300.000000) scale(0.100000,-0.100000)" fill="#ffffff" stroke="none">
        <path d="M1100 2440 c-349 -159 -643 -293 -653 -299 -15 -10 -17 -30 -17 -171
l0 -160 31 -19 c17 -10 84 -42 149 -71 l118 -52 257 117 257 117 259 -118 258
-117 143 65 143 64 3 102 c1 56 4 102 5 102 2 0 52 -22 112 -49 102 -47 110
-49 139 -37 97 42 243 110 254 119 9 7 12 53 12 168 0 153 -1 159 -23 173 -42
28 -776 356 -794 355 -10 -1 -304 -131 -653 -289z m1015 82 c193 -87 359 -162
369 -166 15 -5 -2 -17 -80 -52 -54 -26 -108 -48 -119 -50 -12 -3 -126 43 -273
110 l-252 115 -131 -59 c-72 -32 -136 -63 -142 -69 -7 -7 3 -16 34 -29 92 -40
454 -204 458 -208 2 -2 -5 -7 -15 -10 -10 -4 -61 -26 -112 -50 l-92 -43 -259
118 -258 118 -259 -117 -259 -117 -65 29 c-36 17 -87 40 -114 52 l-48 21 53
23 c30 12 310 139 624 281 314 143 575 260 580 260 6 1 168 -70 360 -157z
m-371 -172 c-1 -50 -5 -90 -8 -90 -6 1 -60 24 -146 63 l-55 25 50 21 c28 12
73 32 100 46 28 13 52 24 55 24 3 1 4 -39 4 -89z m271 -19 l240 -108 3 -132
c1 -73 -1 -131 -5 -129 -4 2 -39 18 -78 36 -38 19 -87 40 -107 49 -32 13 -38
20 -38 45 0 28 -6 32 -112 82 -62 29 -121 56 -130 59 -16 5 -18 20 -18 107 0
55 1 100 3 100 1 0 110 -49 242 -109z m505 -134 l0 -133 -115 -51 -115 -51 0
134 c0 100 3 134 13 134 6 1 57 23 112 50 55 26 101 49 103 49 1 1 2 -59 2
-132z m-1297 -248 c-8 -7 -470 -219 -479 -219 -2 0 -4 58 -4 130 l0 129 48 21
c26 11 135 60 242 109 l195 88 3 -125 c1 -69 -1 -129 -5 -133z m307 135 l205
-93 5 -128 c3 -70 4 -130 3 -132 -1 -2 -110 46 -243 106 l-241 110 0 126 c0
70 0 129 1 132 0 3 15 -2 33 -11 17 -10 124 -59 237 -110z m-922 -50 l102 -47
0 -129 c0 -70 -1 -128 -3 -128 -2 0 -52 22 -113 50 l-109 50 -3 131 c-2 104 0
130 10 126 7 -3 59 -26 116 -53z m1392 -76 l-5 -131 -109 -49 c-59 -26 -110
-48 -112 -48 -2 0 -4 58 -4 128 l0 128 108 51 c59 28 112 52 117 52 6 1 8 -46
5 -131z" />
        <path d="M2512 1843 c2 -53 6 -68 18 -68 12 0 16 15 18 68 3 62 1 67 -18 67
-19 0 -21 -5 -18 -67z" />
        <path d="M1232 1738 c2 -66 6 -83 18 -83 12 0 16 17 18 83 3 77 2 82 -18 82
-20 0 -21 -5 -18 -82z" />
        <path d="M2263 1813 c-19 -7 -18 -256 0 -272 28 -23 37 9 37 135 0 122 -7 148
-37 137z" />
        <path d="M2513 1684 c-9 -23 13 -40 32 -24 12 10 13 16 4 26 -15 18 -28 18
-36 -2z" />
        <path d="M450 1565 c0 -96 2 -106 18 -103 15 3 17 16 17 103 0 87 -2 100 -17
103 -16 3 -18 -7 -18 -103z" />
        <path d="M705 1558 c-3 -7 -4 -106 -3 -218 3 -197 4 -205 23 -205 19 0 20 7
20 215 0 197 -1 215 -18 218 -9 2 -19 -3 -22 -10z" />
        <path d="M1232 1553 c2 -10 10 -18 18 -18 8 0 16 8 18 18 2 12 -3 17 -18 17
-15 0 -20 -5 -18 -17z" />
        <path d="M2254 1437 c-3 -8 -4 -30 -2 -49 2 -25 8 -33 23 -33 17 0 20 7 20 45
0 35 -4 45 -18 48 -9 2 -20 -3 -23 -11z" />
        <path d="M447 1373 c-3 -5 -2 -15 3 -22 10 -17 43 -6 38 12 -6 15 -34 22 -41
10z" />
        <path d="M704 1036 c-3 -8 -4 -31 -2 -52 2 -31 7 -39 23 -39 16 0 21 8 23 38
4 51 -29 91 -44 53z" />
        <path d="M1106 725 c-357 -162 -654 -299 -660 -305 -7 -7 -6 -14 4 -24 17 -15
258 -126 275 -126 6 0 125 52 264 115 l253 114 254 -114 c139 -63 258 -115
263 -115 5 0 71 28 145 61 94 43 136 67 136 78 0 12 -66 46 -232 120 -128 57
-236 106 -240 110 -4 4 38 26 93 50 l100 43 256 -117 256 -116 139 62 c76 34
141 66 145 71 3 6 -1 16 -8 23 -11 10 -737 343 -784 360 -5 2 -302 -129 -659
-290z m1231 -20 c73 -33 130 -62 125 -66 -4 -4 -48 -26 -98 -48 l-90 -40 -252
114 c-138 63 -257 115 -264 115 -7 0 -71 -27 -143 -60 l-130 -59 -3 -81 c-3
-75 -1 -80 18 -80 18 0 20 6 20 54 l0 54 203 -93 c111 -50 211 -95 222 -100
16 -6 17 -8 5 -13 -8 -2 -55 -23 -103 -44 l-89 -40 -258 117 -258 117 -257
-116 -258 -117 -98 43 c-89 38 -119 58 -88 58 9 0 360 157 1008 451 95 44 177
79 182 79 5 0 6 -20 3 -44 -6 -37 -3 -46 13 -55 28 -14 33 -6 33 55 l0 52 213
-97 c116 -53 272 -124 344 -156z" />
    </g>
</svg>